<?xml version="1.0" encoding="UTF-8" standalone="no"?>
<!-- Generator: Adobe Illustrator 26.5.0, SVG Export Plug-In . SVG Version: 6.00 Build 0)  -->

<svg
   version="1.1"
   id="Layer_1"
   x="0px"
   y="0px"
   viewBox="0 0 2521 2911"
   style="enable-background:new 0 0 2521 2911;"
   xml:space="preserve"
   sodipodi:docname="DEER_logo.svg"
   inkscape:version="1.4.2 (f4327f4, 2025-05-13)"
   xmlns:inkscape="http://www.inkscape.org/namespaces/inkscape"
   xmlns:sodipodi="http://sodipodi.sourceforge.net/DTD/sodipodi-0.dtd"
   xmlns="http://www.w3.org/2000/svg"
   xmlns:svg="http://www.w3.org/2000/svg"><defs
   id="defs181"><clipPath
     clipPathUnits="userSpaceOnUse"
     id="clipPath3"><path
       d="M 0,500 H 500 V 0 H 0 Z"
       transform="translate(-11.8093,-318.47551)"
       id="path3" /></clipPath><clipPath
     clipPathUnits="userSpaceOnUse"
     id="clipPath5"><path
       d="M 0,500 H 500 V 0 H 0 Z"
       transform="translate(-400.42881,-229.52051)"
       id="path5" /></clipPath><clipPath
     clipPathUnits="userSpaceOnUse"
     id="clipPath7"><path
       d="M 0,500 H 500 V 0 H 0 Z"
       transform="translate(-271.975,-353.95021)"
       id="path7" /></clipPath><clipPath
     clipPathUnits="userSpaceOnUse"
     id="clipPath9"><path
       d="M 0,500 H 500 V 0 H 0 Z"
       transform="translate(-400.42881,-229.52051)"
       id="path9" /></clipPath><clipPath
     clipPathUnits="userSpaceOnUse"
     id="clipPath11"><path
       d="M 0,500 H 500 V 0 H 0 Z"
       transform="translate(-336.63561,-339.75781)"
       id="path11" /></clipPath><clipPath
     clipPathUnits="userSpaceOnUse"
     id="clipPath13"><path
       d="M 0,500 H 500 V 0 H 0 Z"
       transform="translate(-318.46561,-268.52051)"
       id="path13" /></clipPath><clipPath
     clipPathUnits="userSpaceOnUse"
     id="clipPath15"><path
       d="M 0,500 H 500 V 0 H 0 Z"
       transform="translate(-201.4258,-294.40001)"
       id="path15" /></clipPath><clipPath
     clipPathUnits="userSpaceOnUse"
     id="clipPath17"><path
       d="M 0,500 H 500 V 0 H 0 Z"
       transform="translate(-429.03101,-383.04551)"
       id="path17" /></clipPath></defs><sodipodi:namedview
   id="namedview181"
   pagecolor="#ffffff"
   bordercolor="#000000"
   borderopacity="0.25"
   inkscape:showpageshadow="2"
   inkscape:pageopacity="0.0"
   inkscape:pagecheckerboard="0"
   inkscape:deskcolor="#d1d1d1"
   showguides="false"
   inkscape:zoom="0.29950624"
   inkscape:cx="1200.3089"
   inkscape:cy="1447.3822"
   inkscape:window-width="2560"
   inkscape:window-height="1494"
   inkscape:window-x="-11"
   inkscape:window-y="-11"
   inkscape:window-maximized="1"
   inkscape:current-layer="g181" />
<style
   type="text/css"
   id="style1">
	.st0{fill:#141227;}
	.st1{opacity:0.94;}
	.st2{fill:#FFFFFF;}
	.st3{fill:#E6B35A;}
	.st4{opacity:0.8;fill:#F2F2F2;enable-background:new    ;}
	.st5{fill:#F7A238;}
	.st6{fill:#0088C5;}
	.st7{fill:#7FB036;}
	.st8{fill:#F9ECC6;}
	.st9{fill:#FFF34D;}
	.st10{fill:#B57AB4;}
	.st11{fill:#DB1F26;}
	.st12{fill:#F26524;}
	.st13{fill:#00A5DC;}
	.st14{fill:#164F86;}
	.st15{fill:#36A85D;}
	.st16{fill:#FFFEF9;}
	.st17{fill:#EF4782;}
	.st18{fill:#404040;}
</style>
<g
   id="g181">
	
	
	
	<polyline
   class="st4"
   points="1156.4,223.8 1169.2,216.4 1182.3,223.8 1182.3,238.6 1169.2,246 1156.4,238.6 1156.4,223.8  "
   id="polyline10" />
	
	
	
	
	
	
	
	
	
	
	
	
	
	
	
	
	
	
	
	
	
	
	
	
	
	
	
	
	
	
	
	
	
	
	
	
	
	
	
	
	
	
	
	
	
	
	
	
	
	
	
	
	
	
	
	
	
	
	
	
	
	
	
	
	
	
	
	
	
	
	
	
	
	
	
	
	
	
	
	
	
	
	
	
	
	
	
	
	
	
	
	
	
	
	
	
	
	
	
	
	
	
	
	
	
	
	
	
	
	
	
	
	
	
	
	
	
	
	
	
	
	
	
	
	
	
	
	
	
	
	
	
	
	
	
	
	
	
	
	
	
	
	
	
	
	
	
	
	
	
	
	
	
	
	
	
	
	
	
	
	
	
	
	
	
	
	
	
	
	
	
	
	
	
	
	
<path
   id="path2"
   d="M 0,0 C 1.877,1.025 3.773,2.012 5.689,2.96 Z"
   style="fill:#d3d4ff;fill-opacity:1;fill-rule:nonzero;stroke:none"
   transform="matrix(6.0047861,-0.63836587,-0.68120255,-5.6271818,-331.41977,1308.0597)"
   clip-path="url(#clipPath3)" /><path
   id="path4"
   clip-path="url(#clipPath5)"
   style="fill:#ffeeaa;fill-opacity:1;fill-rule:nonzero;stroke:none"
   d="M -143.73434,144.54627 -276.52278,81.188391 -293.71968,-70.40192 c 2.51414,-3.288787 5.1146,-6.512381 7.79681,-9.667173 l 74.8687,-59.425707 2.1e-4,-2e-5 c 15.06281,-7.76922 30.92124,-13.96599 47.27137,-18.36449 l 117.714939,56.16585 17.558922,154.781533 z"
   transform="matrix(9.2356009,-0.96920698,-1.0477167,-8.5435395,2739.4165,1215.0288)"
   sodipodi:nodetypes="cccccccccc" /><path
   id="path6"
   clip-path="url(#clipPath7)"
   style="fill:#fefafa;fill-opacity:1;fill-rule:nonzero;stroke:none"
   d="M -15.280548 20.116562 L -66.375219 -4.2624877 C -70.296544 -13.121986 -74.983873 -21.640031 -80.39708 -29.678914 C -98.265108 -56.226261 -123.97415 -77.402745 -153.37549 -90.017963 L -157.76936 -128.74985 C -135.51944 -128.02834 -113.20699 -127.92639 -91.837064 -122.02896 C -39.058064 -107.46196 0.61196478 -54.754997 -3.5224343e-05 2.6791799e-06 C -0.029682806 2.762966 -0.15675703 5.5340625 -0.39038938 8.2977352 L -15.280548 20.116562 z "
   transform="matrix(9.2356009,-0.96920698,-1.0477167,-8.5435395,1422.7015,276.45702)" /><path
   id="path8"
   clip-path="url(#clipPath9)"
   style="fill:#fff6d5;fill-opacity:1;fill-rule:nonzero;stroke:none"
   d="m -44.618427,65.874869 c -8.495469,-20.172501 -17.544441,-40.064637 -30.99552,-57.2007902 -19.749,-25.1629998 -48.590043,-43.0291118 -79.918043,-49.5081118 -35.805,-7.409 -72.76792,-0.258899 -109.27092,1.770101 -8.33189,0.463469 -16.84751,0.583838 -25.33999,0.191246 l -3.57678,-31.529234 c 2.51414,-3.288787 5.1146,-6.512381 7.79681,-9.667173 l 1.58175,-1.255499 2.1e-4,-2.4e-5 c 11.87719,-0.09895 23.79461,-1.137425 35.3679,-2.750332 42.277,-5.913 84.02912,-18.497982 126.69212,-16.967982 27.19863,0.97714 54.134359,7.891286 78.545534,19.908596 l 15.226627,134.222407 z"
   transform="matrix(9.2356009,-0.96920698,-1.0477167,-8.5435395,2739.4165,1215.0288)"
   sodipodi:nodetypes="ccccccccsccccc" /><path
   id="path10"
   d="m 0,0 c 0,-10.035 -8.135,-18.17 -18.17,-18.17 -10.035,0 -18.17,8.135 -18.17,18.17 0,10.035 8.135,18.17 18.17,18.17 C -8.135,18.17 0,10.035 0,0"
   style="fill:#fefafa;fill-opacity:1;fill-rule:nonzero;stroke:none"
   transform="matrix(6.5246151,-0.69746521,-0.74017362,-6.1481414,1845.1242,570.35731)"
   clip-path="url(#clipPath11)" /><path
   id="path12"
   d="m 0,0 c 0,-6.424 -5.208,-11.632 -11.632,-11.632 -6.425,0 -11.633,5.208 -11.633,11.632 0,6.424 5.208,11.632 11.633,11.632 C -5.208,11.632 0,6.424 0,0"
   style="fill:#fefafa;fill-opacity:1;fill-rule:nonzero;stroke:none"
   transform="matrix(6.0047861,-0.63836587,-0.68120255,-5.6271818,1544.0152,1393.4067)"
   clip-path="url(#clipPath13)" /><polyline
   class="st4"
   points="1156.4,223.8 1169.2,216.4 1182.3,223.8 1182.3,238.6 1169.2,246 1156.4,238.6 1156.4,223.8  "
   id="polyline192" /><path
   id="path192"
   d="M 0,0 C 1.877,1.025 3.773,2.012 5.689,2.96 Z"
   style="fill:#d3d4ff;fill-opacity:1;fill-rule:nonzero;stroke:none"
   transform="matrix(6.0047861,-0.63836587,-0.68120255,-5.6271818,-331.41977,1308.0597)"
   clip-path="url(#clipPath3)" /><path
   id="path193"
   clip-path="url(#clipPath7)"
   style="fill:#fff6d5;fill-opacity:1;fill-rule:nonzero;stroke:none"
   d="M -15.280548 20.116562 L -66.375219 -4.2624877 C -70.296544 -13.121986 -74.983873 -21.640031 -80.39708 -29.678914 C -98.265108 -56.226261 -123.97415 -77.402745 -153.37549 -90.017963 L -157.76936 -128.74985 C -135.51944 -128.02834 -113.20699 -127.92639 -91.837064 -122.02896 C -39.058064 -107.46196 0.61196478 -54.754997 -3.5224343e-05 2.6791799e-06 C -0.029682806 2.762966 -0.15675703 5.5340625 -0.39038938 8.2977352 L -15.280548 20.116562 z "
   transform="matrix(9.2356009,-0.96920698,-1.0477167,-8.5435395,1422.7015,276.45702)" /><path
   id="path194"
   d="m 0,0 c 0,-10.035 -8.135,-18.17 -18.17,-18.17 -10.035,0 -18.17,8.135 -18.17,18.17 0,10.035 8.135,18.17 18.17,18.17 C -8.135,18.17 0,10.035 0,0"
   style="fill:#fff6d5;fill-opacity:1;fill-rule:nonzero;stroke:none"
   transform="matrix(6.5246151,-0.69746521,-0.74017362,-6.1481414,1845.1242,570.35731)"
   clip-path="url(#clipPath11)" /><path
   id="path14"
   clip-path="url(#clipPath15)"
   style="fill:#674a36;fill-opacity:1;fill-rule:nonzero;stroke:none"
   d="m -60.905901,107.28783 c 0.06,-7.06 0.656985,-14.113922 1.806985,-21.080922 0.049,-0.295 -0.02092,-0.582897 -0.190923,-0.799897 0.225,-0.557 0.402995,-1.131896 0.485995,-1.739896 0.187,-1.375 -0.267233,-2.780056 -1.423233,-3.603056 -1.243,-0.883 -2.955026,-0.688948 -4.206026,0.07105 -1.438,0.873 -2.21402,2.422796 -2.60202,4.011796 -0.43,1.757 -0.568722,3.60319 -0.780722,5.39519 -0.457,3.861 -0.848057,7.735863 -1.535057,11.564865 -0.336,1.871 -0.742211,3.731 -1.260211,5.561 -0.446,1.577 -0.938042,3.14992 -1.713042,4.59992 -1.171,2.192 -3.292934,4.73208 -6.093934,4.06708 -2.781,-0.66 -4.176878,-3.82005 -4.757878,-6.33605 -1.698,-7.354 0.799122,-15.147927 3.526122,-21.939927 1.294,-3.223 2.88283,-6.409115 5.04983,-9.142115 2.232,-2.817 5.10301,-4.974914 7.78801,-7.328914 2.614,-2.291 4.831074,-4.866075 6.501074,-7.927075 1.621,-2.97 2.779803,-6.16899 3.887803,-9.35599 1.11,-3.191 2.186193,-6.395865 3.623193,-9.457865 1.379,-2.938 3.009961,-5.755011 4.837961,-8.435011 3.693,-5.412 8.197992,-10.235013 13.072992,-14.596013 4.924,-4.405 10.244967,-8.34201 15.731967,-12.0130097 5.785,-3.871 12.0281591,-8.15697088 19.15715908749,-8.802970882625 C 0.30714409,-0.02797858 0.52496854,-0.18183911 0.66696854,-0.38383911 1.5469685,3.3591609 1.8691118,7.1981128 0.08511178,10.784112 c -0.059,0.118 -0.11606318,0.235023 -0.17506318,0.352023 -1.62,1.097 -3.2249594,2.211981 -4.7999594,3.373981 -4.036,2.975 -7.9600612,6.117952 -11.8250612,9.310952 -1.965,1.623 -3.907911,3.274085 -5.837911,4.939085 -0.965,0.832 -1.927197,1.668721 -2.884197,2.510721 -0.861,0.757 -1.757817,1.494148 -2.528817,2.346148 -1.498,1.652 -2.153264,3.659944 -1.705264,5.866944 0.432,2.13 1.795178,3.945113 3.437178,5.314113 1.846,1.541 3.979109,2.715803 6.024109,3.964803 2.22,1.355 4.480767,2.659032 6.661767,4.075032 0.658,0.427 1.498951,1.01109 1.588951,1.86409 0.078,0.747 -0.522881,1.355079 -1.107881,1.717079 -1.7,1.053 -3.916853,0.658958 -5.665853,-0.06704 -4.201,-1.744 -6.912025,-5.661129 -10.426025,-8.370129 -1.671,-1.289 -3.892956,-2.825805 -6.044956,-1.725805 -1.843,0.942 -2.703076,3.266947 -3.595076,4.994947 -2.229,4.315 -4.390217,8.688887 -5.975217,13.287887 -2.856,8.295 -3.660977,17.925022 0.675023,25.880022 2.22,4.073 5.76117,7.096097 9.40017,9.864095 3.685,2.802 7.532077,5.39195 11.513077,7.75395 8.027,4.762 16.6058768,8.61188 25.5018768,11.43788 1.879,0.597 3.8840034,1.01127 5.6340034,1.94527 1.301,0.695 2.6860648,1.87598 2.2140648,3.52098 -0.6100008,2.127 -3.1291711,2.65475 -5.0371711,2.69075 -2.253,0.042 -4.51375762,-0.24803 -6.7067576,-0.75003 -8.9320003,-2.044 -16.5712493,-7.542 -23.6142493,-13.157 -3.651,-2.909 -7.241986,-5.89793 -11.023986,-8.63793 -1.863,-1.349 -3.773832,-2.63588 -5.752832,-3.80988 -1.004,-0.596 -2.026191,-1.16308 -3.066191,-1.694078 -0.979,-0.5 -2.11272,-1.115934 -3.22372,-0.659934 -0.447,0.184 -0.775171,0.591924 -0.628171,1.105932 0.016,0.057 0.04089,0.11196 0.06989,0.16596 -0.54,0.326 -1.005812,0.78897 -1.345812,1.36297 -0.878,1.482 -0.841203,3.33015 -0.889203,4.99515 -0.053,1.781 -0.05275,3.55879 -0.0048,5.33979 0.096,3.559 0.34696,7.11415 0.75196,10.65115 0.489724,4.27374 -10.658909,-8.19816 -10.598909,-15.25616 z M 222.25182,95.777289 c -0.22494,0.02988 -0.45734,0.04601 -0.69753,0.0472 -1.648,0.009 -2.93914,-1.008903 -3.54614,-2.512903 -0.757,-1.875 -0.52779,-3.935037 -0.31279,-5.891037 0.234,-2.133 0.34576,-4.216146 -0.18224,-6.317146 -0.451,-1.794 -1.27392,-3.493849 -2.29092,-5.032849 -2.121,-3.208 -5.00382,-5.810886 -7.92382,-8.272886 -3.53,-2.977 -7.13016,-5.868039 -10.79316,-8.679039 -3.665,-2.813 -7.39688,-5.541115 -11.18888,-8.179115 -1.845,-1.284 -3.67927,-2.652115 -5.63027,-3.773115 -1.763,-1.013 -3.87783,-1.776955 -5.87783,-1.000955 -0.479,0.186 -0.72799,0.590212 -0.62599,1.102212 0.469,2.336 0.93594,4.674006 1.30794,7.028006 1.283,8.103 1.29799,17.24571 -4.03201,24.01771 -1.43,1.818 -6.34504,6.958344 -8.26704,3.255344 -1.823,-3.509 2.2662,-6.57815 4.1922,-8.95215 4.483,-5.522 6.41098,-12.864084 5.66398,-19.902084 -0.373,-3.518 -1.36819,-6.954039 -3.04119,-10.078039 -1.848,-3.453 -4.54302,-6.308795 -7.61902,-8.702795 -3.561,-2.771 -7.49984,-5.059206 -11.42384,-7.271206 -2.08,-1.173 -4.18502,-2.301949 -6.31202,-3.388949 -1.389,-0.709 -3.6889,-1.921062 -4.9159,-0.260062 -0.373,0.505 -0.24527,0.963996 -0.15627,1.546996 0.087,0.573 0.17507,1.146123 0.26007,1.719123 0.185,1.229 0.36594,2.458837 0.53894,3.689837 0.342,2.423 0.65516,4.852223 0.91916,7.285223 0.525,4.848 0.85591,9.722813 0.81491,14.600813 -0.037,4.291 -0.2678,8.654016 -1.2708,12.842016 -0.896,3.741 -2.48222,7.41322 -5.31422,10.10022 -1.17,1.11 -2.68908,1.814759 -4.06808,0.644759 -1.12,-0.951 -1.68982,-2.526821 -1.64482,-3.970821 0.059,-1.871 1.20488,-3.641199 2.20388,-5.150199 1.139,-1.719 2.33312,-3.377969 3.15812,-5.279969 1.711,-3.944 2.17608,-8.262863 2.27508,-12.524863 0.112,-4.823 -0.066,-9.665124 -0.38498,-14.478124 -0.16,-2.408 -0.36726,-4.81285 -0.62126,-7.21385 -0.24,-2.275 -0.43797,-4.601093 -1.03497,-6.818093 -0.844,-3.136 -2.95102,-6.278796 -6.14702,-7.086796 -7.091,-4.2889998 -14.54092,-7.9941283 -22.24592,-11.0471283 -3.904,-1.54700008 -8.003801,-2.8909713 -12.245801,-2.9219713 -0.973,-0.007 -2.03701,-0.00702 -2.98301,0.25197758 -0.937,0.256 -1.621222,0.90212046 -2.078222,1.74212046 -0.926,1.70099996 -1.480825,3.66480676 -1.850825,5.55580676 -0.77,3.9369998 -0.695027,7.9649728 -0.653027,11.9569728 0.021,2.007 0.03704,4.015947 -0.07396,6.019947 -0.082,1.484 -0.346236,3.952956 -2.228236,4.235956 -1.418,0.213 -2.135867,-1.557859 -2.440867,-2.635859 -0.543,-1.92 -0.716952,-3.986865 -0.796952,-5.972865 -0.173,-4.268 0.373075,-8.526006 1.264075,-12.6920056 1.728,-8.06799998 4.792831,-15.803047 6.315831,-23.9130464 0.549,-0.181 0.534938,-0.766227 0.206938,-1.060227 0.123,-0.74 -0.962981,-1.068694 -1.147981,-0.313694 -0.022,0.088 -0.047,0.173741 -0.068,0.260741 -1.298,0.213 -2.591845,0.440114 -3.890845,0.653114 -6.188,1.014 -12.383235,1.53798 -18.654235,1.56398 -2.995,0.013 -5.964853,0.17986 -8.711853,1.48186 -2.476,1.173 -4.748853,2.925286 -6.879853,4.6282862 -2.091,1.671 -4.022965,3.5369943 -5.600965,5.7059943 -1.611,2.214 -2.731304,4.7507232 -3.325304,7.4217232 -1.238,5.56 -0.444796,11.3309963 0.638204,16.8449963 2.309,11.745 6.535089,23.388292 5.918089,35.515292 -0.071,1.408 0.0078,6.261894 -2.647154,4.823894 -1.118,-0.606 -1.814139,-1.667848 -2.369139,-2.774848 -0.616,-1.231 -1.081895,-2.527034 -1.460895,-3.849034 -0.802,-2.792 -1.212085,-5.679171 -1.662085,-8.544171 -0.5,-3.19 -1.001979,-6.37993 -1.501979,-9.56993 -0.501,-3.19 -1.000979,-6.37993 -1.501979,-9.56993 -0.47,-2.994 -0.831809,-6.032272 -1.501809,-8.989272 -0.598,-2.639 -1.590993,-5.253772 -3.457993,-7.263772 -1.567,-1.6869994 -3.702241,-2.8800146 -6.016241,-2.9980146 5.969,-7.90099994 10.608263,-17.6949084 10.146263,-27.7709084 -0.017,-0.377 -0.636085,-0.50299 -0.692085,-0.09399 -0.168,1.212 -0.335083,2.432671 -0.579083,3.631671 -0.973,4.785 -2.415993,9.4671415 -4.555993,13.8651415 -2.161,4.442 -4.947129,8.555999 -8.162129,12.299999 -3.191,3.7149995 -6.777822,7.0771695 -10.590822,10.1441695 -0.9260008,0.744 -1.8669154,1.470943 -2.8199154,2.179943 -0.968,0.72 -2.0100267,1.529772 -3.2160267,1.784772 -2.065,0.438 -2.9961665,-1.53102 -3.37116647,-3.20402 -0.228,-1.014 -0.31200667,-2.055852 -0.37600667,-3.090852 -0.08,-1.291 -0.0487406,-2.571864 0.42125939,-3.792864 C 1.2603931,12.260657 1.9341419,11.205615 2.3671419,10.038615 2.8081419,8.8466144 3.042273,7.5856123 3.144273,6.3206123 3.573273,1.0576123 1.41634,-3.8855111 0.15733995,-8.8845111 -1.16166,-14.123511 -1.1497181,-19.586394 -1.0597181,-24.954394 c 0.0740001,-4.461 0.36987643,-8.999076 1.79887643,-13.259076 1.37199997,-4.089 3.93697937,-7.660154 7.71897937,-9.821154 3.6590003,-2.091 8.0900983,-2.781863 12.1900983,-1.760863 1.124,0.28 1.599905,-1.455006 0.476905,-1.734006 -1.086,-0.271 -2.200019,-0.441082 -3.319019,-0.505082 -0.779,-0.045 -1.556897,-0.01872 -2.331897,0.03928 0.589,-2.784 1.034006,-5.668997 2.339006,-8.213997 0.69,-1.347 1.657002,-2.531341 2.225002,-3.943341 0.618,-1.536 0.44703,-3.195728 -0.11097,-4.722728 -0.516,-1.414 -1.23698,-2.752049 -1.87498,-4.113049 -0.637,-1.362 -1.257137,-2.733028 -1.859137,-4.111028 -1.201,-2.746 -2.329072,-5.52398 -3.398072,-8.32398 -2.146,-5.62 -4.0507901,-11.33012 -5.7917901,-17.087122 -1.755,-5.807 -3.344989,-11.66285 -4.850989,-17.53885 -0.749,-2.923 -1.47719369,-5.85119 -2.19519369,-8.78219 -0.359,-1.465 -0.71385071,-2.92975 -1.06885081,-4.39575 -0.362,-1.495 -0.6311488,-3.03626 -1.2241488,-4.45726 -0.067,-0.161 -0.1647843,-0.29395 -0.2867843,-0.39195 -0.072,-0.436 -0.1441047,-0.87095 -0.2131047,-1.30795 -0.254,-1.617 -0.4639391,-3.24401 -0.6369391,-4.87201 -0.628,-5.926 -0.7639344,-11.86709 -0.5609344,-17.82109 0.101,-2.955 0.2739326,-5.90597 0.4809326,-8.85497 0.106,-1.509 0.2298021,-3.0178 0.3278021,-4.5278 0.051,-0.788 0.083189,-1.57796 0.1241889,-2.36596 0.037,-0.715 0.08386,-1.395 -0.04514,-2.101 -0.121,-0.668 -1.0248143,-0.5281 -1.2168143,-1e-4 -0.288,0.798 -0.3201311,1.68985 -0.4151311,2.53085 -0.098,0.86 -0.195071,1.72019 -0.271071,2.58219 -0.147,1.652 -0.2649261,3.30688 -0.3759261,4.96088 -0.405,6.028 -0.6390978,12.07706 -0.3930978,18.11606 0.122,3.007 0.3630312,6.00705 0.7840312,8.98705 0.21,1.482 0.4791392,2.95479 0.7891392,4.41879 0.042,0.198 0.094074,0.39011 0.1410735,0.58411 -0.892,-1.239 -1.7622748,-2.49301 -2.5972748,-3.76801 -6.1259995,-9.349 -10.2037755,-19.86304 -12.6027755,-30.75504 -2.706,-12.286 -3.254188,-24.94403 -2.883188,-37.48603 0.06792,-2.29374 0.163826,-4.58716 0.284139,-6.87958 l 64.361024,-50.48006 67.311149,31.6387 c 1.21198,4.94424 1.90361,10.0356 2.2619,15.11313 0.44,6.233 0.42089,12.48693 0.32089,18.72993 -0.099,6.276 -0.29695,12.55182 -0.71195,18.81482 -0.834,12.583 -2.57592,25.1391 -6.14992,37.2571 -0.329,1.114 1.40692,1.58515 1.73292,0.47815 0.891,-3.021 1.67497,-6.0732 2.35597,-9.1482 2.773,-12.536 3.88194,-25.38091 4.33994,-38.19091 0.027,-0.777 0.0482,-1.55401 0.0732,-2.33101 0.845,5.102 1.36683,10.25407 1.54983,15.42507 0.199,5.654 0.0179,11.34592 -0.78808,16.95092 -0.408,2.828 -0.9669,5.63513 -1.7049,8.39613 -0.747,2.798 -1.73512,5.49186 -2.77412,8.19186 -1.075,2.795 -1.58795,5.64618 -2.05595,8.59318 -0.475,2.997 -0.92388,5.99871 -1.38088,8.99871 -0.463,3.038 -0.95185,6.07331 -1.38685,9.11531 -0.212,1.486 -0.4113,2.97373 -0.6173,4.46173 -0.139,1.003 -0.28702,2.00816 -0.37602,3.01616 -2.477,-0.946 -4.96898,-1.87386 -7.51998,-2.60286 -4.726,-1.349 -10.061753,-2.13731 -14.751753,-0.22231 -2.292,0.936 -4.169975,2.46127 -5.935975,4.16927 -1.723,1.666 -3.368026,3.44575 -5.451026,4.67375 -0.997,0.588 -0.09228,2.14209 0.906725,1.55309 0.988,-0.583 1.902145,-1.2839 2.764145,-2.0379 1.755,-1.537 3.292986,-3.31199 5.117986,-4.77099 1.83,-1.463 3.97013,-2.37417 6.28013,-2.74117 4.779,-0.761 9.741006,0.69792 14.207008,2.27292 1.511,0.532 3.01101,1.09504 4.50601,1.67304 0.028,0.015 0.0568,0.0252 0.0868,0.0342 1.104,0.427 2.20601,0.86005 3.30201,1.30705 2.607,1.064 5.158,2.24583 7.74,3.36683 1.249,0.542 2.52102,1.04808 3.85702,1.32808 1.361,0.287 2.75607,0.35501 4.14407,0.34901 1.388,-0.006 2.77491,-0.0781 4.16191,-0.0241 1.371,0.053 2.70993,0.27897 4.03393,0.63397 2.515,0.675 5.02607,1.63991 7.34407,2.826908 2.168,1.111 4.11913,2.558204 5.60113,4.511204 3.106,4.094 4.08984,9.302008 4.50084,14.309008 0.114,1.397 0.19214,2.795721 0.26814,4.195721 0.062,1.149 0.18889,2.445135 -0.32211,3.517135 -0.91,1.909 -3.51299,2.456158 -5.28099,3.225158 -4.256,1.85 -8.04112,4.66999 -11.32112,7.92999 -3.344,3.324 -6.20178,7.106797 -8.74578,11.068797 -2.438,3.796 -4.35398,8.391965 -8.38398,10.805965 -0.357,0.213 -0.044,0.697239 0.31705,0.541239 1.049,-0.453 1.99175,-1.070123 2.85075,-1.822123 1.787,-1.562 3.08002,-3.496966 4.40902,-5.440966 1.355,-1.982 2.66925,-3.991969 4.08325,-5.932969 0.852,-1.17 1.73899,-2.31794 2.65799,-3.44094 0.082,0.06 0.16979,0.114832 0.28479,0.147832 5.061,1.446 9.70597,4.106225 13.51297,7.741225 3.658,3.493 6.70611,7.630907 9.81211,11.605907 3.151,4.034 6.19005,8.166851 8.77805,12.588851 2.599,4.44 4.87181,9.168018 6.21981,14.148018 0.324,1.1980002 0.56621,2.4249579 1.00021,3.5899579 0.403,1.08 0.97484,2.0621693 1.58584,3.0351693 0.875,1.392 2.07017,3.00490152 1.86017,4.7079016 -5.403,-0.137 -10.78114,-0.79396985 -16.05414,-1.98596985 -4.901,-1.10799995 -9.7181,-2.64811535 -14.3351,-4.63211535 -4.564,-1.96 -8.8459,-4.4280446 -13.1539,-6.8840446 -4.255,-2.426 -8.60609,-4.779997 -13.30609,-6.232997 -3.615,-1.117 -9.02071,-2.010804 -10.32271,-6.134804 0.033,-0.026 0.0687,-0.04799 0.0977,-0.07599 0.202,-0.203 0.25308,-0.46322 0.27308,-0.73522 0.024,-0.349 -0.25689,-0.599866 -0.54689,-0.717866 -0.561,-0.228 -1.00615,0.166043 -1.41815,0.493043 -0.262,0.208 -0.50783,0.433964 -0.73483,0.678964 -0.5,0.539 -0.95921,1.161038 -1.25321,1.838038 -0.313,0.72 -0.53402,1.465103 -0.62502,2.246103 -0.059,0.516 0.0101,0.996897 0.12007,1.479897 0.114,1.446 0.52598,2.850867 1.17198,4.160867 1.824,3.698 5.26702,6.1862026 8.84302,8.0322026 3.955,2.042 8.08717,3.7617902 12.10717,5.6737902 8.274,3.934 16.44873,8.079072 24.51373,12.4270722 8.03,4.329 15.95103,8.860993 23.75303,13.588993 7.707,4.67 15.34529,9.490182 22.76429,14.610182 7.047,4.864 13.85575,10.172999 19.56875,16.586999 5.397,6.06 9.75813,13.220735 11.90713,21.087735 1.044,3.824 1.6879,7.958043 1.2959,11.925043 -0.30844,3.125625 -1.97917,6.683651 -5.35335,7.131853 z"
   transform="matrix(5.3384426,-0.56752721,-0.60561036,-5.0027405,864.38233,1061.1955)"
   sodipodi:nodetypes="sccccccccccccccccccccccccccccccccccccccccccccccccccccccccccccsccccccccscccccccccccscccccscccccsccccccccccccccccccccccsccccccccccsscccccccccccccccccccccccccccccccscccccscccccccccsccssccccccccccccccccccccccccccscccccccsccccccsccccccsccccccccccccccccccscccccccccccccscc" /><path
   id="path196"
   clip-path="url(#clipPath15)"
   style="fill:#660080;fill-opacity:1;fill-rule:nonzero;stroke:none"
   d="m -60.905901,107.28783 c 0.06,-7.06 0.656985,-14.113922 1.806985,-21.080922 0.049,-0.295 -0.02092,-0.582897 -0.190923,-0.799897 0.225,-0.557 0.402995,-1.131896 0.485995,-1.739896 0.187,-1.375 -0.267233,-2.780056 -1.423233,-3.603056 -1.243,-0.883 -2.955026,-0.688946 -4.206026,0.07105 -1.438,0.873 -2.21402,2.422796 -2.60202,4.011796 -0.43,1.757 -0.568722,3.60319 -0.780722,5.39519 -0.457,3.861 -0.848057,7.735863 -1.535057,11.564865 -0.336,1.871 -0.742211,3.731 -1.260211,5.561 -0.446,1.577 -0.938042,3.14992 -1.713042,4.59992 -1.171,2.192 -3.292934,4.73208 -6.093934,4.06708 -2.781,-0.66 -4.176878,-3.82005 -4.757878,-6.33605 -1.698,-7.354 0.799122,-15.147927 3.526122,-21.939927 1.294,-3.223 2.88283,-6.409115 5.04983,-9.142115 2.232,-2.817 5.10301,-4.974914 7.78801,-7.328914 2.614,-2.291 4.831074,-4.866075 6.501074,-7.927075 1.621,-2.97 2.779803,-6.16899 3.887803,-9.35599 1.11,-3.191 2.186193,-6.395865 3.623193,-9.457865 1.379,-2.938 3.009961,-5.755011 4.837961,-8.435011 3.693,-5.412 8.197992,-10.235013 13.072992,-14.596013 4.924,-4.405 10.244967,-8.34201 15.731967,-12.0130097 3.059081,-2.0469672 6.246248,-4.2098543 9.6247932,-5.8893128 l 2.163466,13.4541165 c -3.1702642,2.413469 -6.2769252,4.917633 -9.3462162,7.453272 -1.965,1.623 -3.907911,3.274085 -5.837911,4.939085 -0.965,0.832 -1.927197,1.668721 -2.884197,2.510721 -0.861,0.757 -1.757817,1.494148 -2.528817,2.346148 -1.498,1.652 -2.153264,3.659944 -1.705264,5.866944 0.432,2.13 1.795178,3.945113 3.437178,5.314113 1.846,1.541 3.979109,2.715803 6.024109,3.964803 2.22,1.355 4.480767,2.659032 6.661767,4.075032 0.658,0.427 1.498951,1.01109 1.588951,1.86409 0.078,0.747 -0.522881,1.355079 -1.107881,1.717079 -1.7,1.053 -3.916853,0.658956 -5.665853,-0.06704 -4.201,-1.744 -6.912025,-5.661129 -10.426025,-8.370129 -1.671,-1.289 -3.892956,-2.825805 -6.044956,-1.725805 -1.843,0.942 -2.703076,3.266947 -3.595076,4.994947 -2.229,4.315 -4.390217,8.688887 -5.975217,13.287887 -2.856,8.295 -3.660977,17.925022 0.675023,25.880022 2.22,4.073 5.76117,7.096097 9.40017,9.864097 3.685,2.802 7.532077,5.39195 11.513077,7.75395 8.027,4.762 16.6058768,8.61188 25.5018768,11.43788 1.879,0.597 3.8840034,1.01127 5.6340034,1.94527 1.301,0.695 2.6860648,1.87598 2.2140648,3.52098 -0.6100012,2.127 -3.1291711,2.65475 -5.0371711,2.69075 -2.253,0.042 -4.51375763,-0.24803 -6.7067576,-0.75003 -8.9320003,-2.044 -16.5712493,-7.542 -23.6142493,-13.157 -3.651,-2.909 -7.241986,-5.89793 -11.023986,-8.63793 -1.863,-1.349 -3.773832,-2.63588 -5.752832,-3.80988 -1.004,-0.596 -2.026191,-1.16308 -3.066191,-1.69408 -0.979,-0.5 -2.11272,-1.115934 -3.22372,-0.659934 -0.447,0.184 -0.775171,0.591919 -0.628171,1.105934 0.016,0.057 0.04089,0.11196 0.06989,0.16596 -0.54,0.326 -1.005812,0.78897 -1.345812,1.36297 -0.878,1.482 -0.841203,3.33015 -0.889203,4.99515 -0.053,1.781 -0.0527,3.55879 -0.0048,5.33979 0.096,3.559 0.34696,7.11415 0.75196,10.65115 0.489723,4.27373 -10.658909,-8.19816 -10.598909,-15.25616 z M 222.25182,95.777289 c -0.22494,0.02988 -0.45734,0.04601 -0.69753,0.0472 -1.648,0.009 -2.93914,-1.008903 -3.54614,-2.512903 -0.757,-1.875 -0.52779,-3.935037 -0.31279,-5.891037 0.234,-2.133 0.34576,-4.216146 -0.18224,-6.317146 -0.451,-1.794 -1.27392,-3.493849 -2.29092,-5.032849 -2.121,-3.208 -5.00382,-5.810886 -7.92382,-8.272886 -3.53,-2.977 -7.13016,-5.868039 -10.79316,-8.679039 -3.665,-2.813 -7.39688,-5.541115 -11.18888,-8.179115 -1.845,-1.284 -3.67927,-2.652115 -5.63027,-3.773115 -1.763,-1.013 -3.87783,-1.776955 -5.87783,-1.000955 -0.479,0.186 -0.72799,0.590212 -0.62599,1.102212 0.469,2.336 0.93594,4.674006 1.30794,7.028006 1.283,8.103 1.29799,17.24571 -4.03201,24.01771 -1.43,1.818 -6.34504,6.958344 -8.26704,3.255344 -1.823,-3.509 2.2662,-6.57815 4.1922,-8.95215 4.483,-5.522 6.41098,-12.864084 5.66398,-19.902084 -0.373,-3.518 -1.36819,-6.954039 -3.04119,-10.078039 -1.848,-3.453 -4.54302,-6.308795 -7.61902,-8.702795 -3.561,-2.771 -7.49984,-5.059206 -11.42384,-7.271206 -2.08,-1.173 -4.18502,-2.301949 -6.31202,-3.388949 -1.389,-0.709 -3.6889,-1.921062 -4.9159,-0.260062 -0.373,0.505 -0.24527,0.963996 -0.15627,1.546996 0.087,0.573 0.17507,1.146123 0.26007,1.719123 0.185,1.229 0.36594,2.458837 0.53894,3.689837 0.342,2.423 0.65516,4.852223 0.91916,7.285223 0.525,4.848 0.85591,9.722813 0.81491,14.600813 -0.037,4.291 -0.2678,8.654016 -1.2708,12.842016 -0.896,3.741 -2.48222,7.41322 -5.31422,10.10022 -1.17,1.11 -2.68908,1.814759 -4.06808,0.644759 -1.12,-0.951 -1.68982,-2.526821 -1.64482,-3.970821 0.059,-1.871 1.20488,-3.641199 2.20388,-5.150199 1.139,-1.719 2.33312,-3.377969 3.15812,-5.279969 1.711,-3.944 2.17608,-8.262863 2.27508,-12.524863 0.112,-4.823 -0.066,-9.665124 -0.38498,-14.478124 -0.16,-2.408 -0.36726,-4.81285 -0.62126,-7.21385 -0.24,-2.275 -0.43797,-4.601093 -1.03497,-6.818093 -0.844,-3.136 -2.95102,-6.278796 -6.14702,-7.086796 -7.091,-4.2889997 -14.54092,-7.9941283 -22.24592,-11.0471283 -3.904,-1.54700012 -8.003801,-2.8909713 -12.245801,-2.9219713 -0.973,-0.007 -2.03701,-0.00702 -2.98301,0.25197758 -0.937,0.256 -1.621222,0.90212046 -2.078222,1.74212046 -0.926,1.70099996 -1.480825,3.66480676 -1.850825,5.55580676 -0.77,3.9369998 -0.695027,7.9649728 -0.653027,11.9569728 0.021,2.007 0.03704,4.015947 -0.07396,6.019947 -0.082,1.484 -0.346236,3.952956 -2.228236,4.235956 -1.418,0.213 -2.135867,-1.557859 -2.440867,-2.635859 -0.543,-1.92 -0.716952,-3.986865 -0.796952,-5.972865 -0.173,-4.268 0.373075,-8.526006 1.264075,-12.6920056 1.728,-8.06799997 4.792831,-15.8030473 6.315831,-23.9130464 0.549,-0.181 0.534938,-0.766227 0.206938,-1.060227 0.03823,-0.230029 -0.04038,-0.42036 -0.172413,-0.550705 l 15.892459,-7.579125 c -0.26199,0.207999 -0.50783,0.433966 -0.73483,0.678964 -0.5,0.539 -0.95921,1.161038 -1.25321,1.838038 -0.313,0.72 -0.53402,1.465103 -0.62502,2.246103 -0.059,0.516 0.0101,0.996897 0.12007,1.479897 0.114,1.446 0.52598,2.850867 1.17198,4.160867 1.824,3.698 5.26702,6.1862026 8.84302,8.0322026 3.955,2.042 8.08717,3.7617902 12.10717,5.6737902 8.274,3.934 16.44873,8.0790719 24.51373,12.4270722 8.03,4.329 15.95103,8.860993 23.75303,13.588993 7.707,4.67 15.34529,9.490182 22.76429,14.610182 7.047,4.864 13.85575,10.172999 19.56875,16.586999 5.397,6.06 9.75813,13.220735 11.90713,21.087735 1.044,3.824 1.6879,7.958043 1.2959,11.925043 -0.30844,3.125625 -1.97917,6.683651 -5.35335,7.131853 z"
   transform="matrix(5.3384426,-0.56752721,-0.60561036,-5.0027405,864.38233,1061.1955)"
   sodipodi:nodetypes="scccccccccccccccccccccccccccccccccccccccccccccccccccccccccssccccccccscccccccccccscccccscccccsccccccccccccccccccccccccccccccccss" /><path
   id="path197"
   clip-path="url(#clipPath15)"
   style="fill:#3771c8;fill-opacity:1;fill-rule:nonzero;stroke:none"
   d="M 6.6330553 127.49524 C 6.1190394 127.58301 5.6039272 127.62274 5.1269272 127.63174 C 2.8739272 127.67374 0.61313084 127.38369 -1.5798691 126.88169 C -10.511869 124.83769 -18.15119 119.33973 -25.19419 113.72473 C -28.84519 110.81573 -32.436051 107.82698 -36.218051 105.08698 C -38.081051 103.73798 -39.991953 102.45121 -41.970953 101.27721 C -42.974953 100.68121 -43.997007 100.11379 -45.037007 99.582792 C -46.016007 99.082792 -47.149828 98.466903 -48.260828 98.922903 C -48.707828 99.106903 -49.036004 99.515137 -48.889004 100.02915 C -48.873004 100.08615 -48.847976 100.14093 -48.818976 100.19493 C -49.358976 100.52093 -49.825114 100.98392 -50.165114 101.55792 C -51.043114 103.03992 -51.006218 104.88797 -51.054218 106.55297 C -51.107218 108.33397 -51.107023 110.11179 -51.059073 111.89279 C -50.976616 114.94973 -50.779747 118.00401 -50.469224 121.04621 L -60.242895 122.15497 C -60.730079 117.21582 -60.947951 112.24885 -60.905778 107.28796 C -60.845778 100.22796 -60.24903 93.173943 -59.09903 86.206943 C -59.05003 85.911943 -59.119639 85.624142 -59.289642 85.407142 C -59.064642 84.850142 -58.886984 84.275033 -58.803984 83.667033 C -58.616984 82.292033 -59.071238 80.887149 -60.227238 80.064149 C -61.470238 79.181149 -63.182152 79.375256 -64.433152 80.135254 C -65.871152 81.008254 -66.647203 82.557761 -67.035203 84.146761 C -67.465203 85.903761 -67.603959 87.75019 -67.815959 89.54219 C -68.272959 93.40319 -68.663777 97.277934 -69.350777 101.10694 C -69.686777 102.97794 -70.093041 104.83803 -70.611041 106.66803 C -71.057041 108.24503 -71.549271 109.81778 -72.324271 111.26778 C -73.495271 113.45978 -75.616999 115.99996 -78.417999 115.33496 C -81.198999 114.67496 -82.594894 111.51479 -83.175894 108.99879 C -84.873894 101.64479 -82.376703 93.851011 -79.649703 87.059011 C -78.355703 83.836011 -76.766979 80.650022 -74.599979 77.917022 C -72.367979 75.100022 -69.497118 72.941856 -66.812118 70.587856 C -64.198118 68.296856 -61.980752 65.721901 -60.310752 62.660901 C -58.689752 59.690901 -57.53114 56.491842 -56.42314 53.304842 C -55.31314 50.113842 -54.236861 46.909201 -52.799861 43.847201 C -51.420861 40.909201 -49.789907 38.092066 -47.961907 35.412066 C -44.268907 30.000066 -39.763933 25.1769 -34.888933 20.8159 C -29.964933 16.4109 -24.643906 12.473829 -19.156906 8.8028289 C -13.371906 4.9318289 -7.1289066 0.64602688 9.3431551e-05 2.6880277e-05 C 0.30709343 -0.027971117 0.52506648 -0.18167101 0.66706648 -0.38367101 C 1.5470664 3.359329 1.8692772 7.1980575 0.085277136 10.784057 C 0.026277136 10.902057 -0.030903971 11.01917 -0.089903971 11.13617 C -1.709904 12.23317 -3.3149436 13.34801 -4.8899436 14.51001 C -8.9259436 17.48501 -12.849897 20.627932 -16.714897 23.820932 C -18.679897 25.443932 -20.622743 27.095149 -22.552743 28.760149 C -23.517743 29.592149 -24.479997 30.428917 -25.436997 31.270917 C -26.297997 32.027917 -27.195041 32.764847 -27.966041 33.616847 C -29.464041 35.268847 -30.119213 37.277131 -29.671213 39.484131 C -29.239213 41.614131 -27.876056 43.429114 -26.234056 44.798114 C -24.388056 46.339114 -22.255021 47.513961 -20.210021 48.762961 C -17.990021 50.117961 -15.729255 51.421784 -13.548255 52.837784 C -12.890255 53.264784 -12.049295 53.84911 -11.959295 54.70211 C -11.881295 55.44911 -12.481979 56.057084 -13.066979 56.419084 C -14.766979 57.472084 -16.983977 57.078084 -18.732977 56.352086 C -22.933977 54.608086 -25.645037 50.690886 -29.159037 47.981886 C -30.830037 46.692886 -33.051832 45.156058 -35.203832 46.256058 C -37.046832 47.198058 -37.906827 49.523215 -38.798827 51.251215 C -41.027827 55.566215 -43.189002 59.939944 -44.774002 64.538944 C -47.630002 72.833944 -48.435117 82.463859 -44.099117 90.418859 C -41.879117 94.491859 -38.337825 97.515189 -34.698825 100.28319 C -31.013825 103.08519 -27.166839 105.67499 -23.185839 108.03699 C -15.158839 112.79899 -6.5800669 116.64881 2.3159331 119.47481 C 4.1949331 120.07181 6.1998952 120.48619 7.9498952 121.42019 C 9.2508952 122.11519 10.635994 123.29617 10.163994 124.94117 C 9.7064935 126.53642 8.1751033 127.23192 6.6330553 127.49524 z "
   transform="matrix(5.3384426,-0.56752721,-0.60561036,-5.0027405,864.38233,1061.1955)" /><path
   id="rect199"
   style="fill:#463800;stroke-width:10.9606;fill-opacity:1"
   transform="scale(1,-1)"
   d="m 1255.7873,-2848.8485 264.1005,127.9626 900.6122,592.3859 -2320,-0.3 z"
   sodipodi:nodetypes="ccccc" /><path
   class="st18"
   d="M2521,2183.3V727.7l-100.5-58l-953.1-550.3L1260.5,0l-206.9,119.4L100.5,669.7L0,727.7v1455.7l100.5,58   l965.1,557.2l195.2,112.5l195.2-112.5l965.1-557.2L2521,2183.3z M100.5,2128.8V789.4l1160-670l0,0l1160,669.7v1339.4l-1160,670   L100.5,2128.8z"
   id="path181"
   style="fill:#463800;fill-opacity:1" /><text
   xml:space="preserve"
   style="font-size:314.349px;text-align:start;writing-mode:lr-tb;direction:ltr;text-anchor:start;fill:#ffffff;fill-opacity:1;stroke:#000000;stroke-width:4.6342;stroke-dasharray:none;stroke-opacity:1"
   x="602.76044"
   y="2477.1558"
   id="text199"><tspan
     sodipodi:role="line"
     id="tspan199"
     x="602.76044"
     y="2477.1558"
     style="font-style:normal;font-variant:normal;font-weight:bold;font-stretch:normal;font-size:314.349px;font-family:Verdana;-inkscape-font-specification:'Verdana Bold';fill:#ffffff;fill-opacity:1;stroke:none;stroke-width:4.6342;stroke-dasharray:none;stroke-opacity:1">D.E.E.<tspan
   style="fill:#ffe680"
   id="tspan200">R</tspan></tspan></text></g>
</svg>
